# xmcd
#
# Track frame offsets: 
#        150
#        23290
#        49430
#        72543
#        90741
#        114693
#        130529
#        146867
#        171144
#        191451
#        202950
#        218533
#        246296
#
# Disc length: 3667 seconds
#
# Revision: 3
# Processed by: cddbd v1.5.2PL0 Copyright (c) Steve Scherf et al.
# Submitted via: ExactAudioCopyFreeDBPlugin 1.0
#
DISCID=b90e510d
DTITLE=Erik Truffaz - Saloua
DYEAR=2005
DGENRE=Jazz
TTITLE0=Saloua
TTITLE1=Big Wheel
TTITLE2=Whispering
TTITLE3=Yabous
TTITLE4=Gedech
TTITLE5=Dubophone
TTITLE6=Ines
TTITLE7=Tantrik
TTITLE8=Ghost Drummer
TTITLE9=Le soleil d'Eline
TTITLE10=Spirale
TTITLE11=Et la vie continue
TTITLE12=data track
EXTD=YEAR: 2005
EXTT0=
EXTT1=
EXTT2=
EXTT3=
EXTT4=
EXTT5=
EXTT6=
EXTT7=
EXTT8=
EXTT9=
EXTT10=
EXTT11=
EXTT12=
PLAYORDER=
